<?xml version="1.0" standalone="no"?>
<!DOCTYPE svg PUBLIC "-//W3C//DTD SVG 20010904//EN"
 "http://www.w3.org/TR/2001/REC-SVG-20010904/DTD/svg10.dtd">
<svg version="1.0" xmlns="http://www.w3.org/2000/svg"
 width="652.000000pt" height="652.000000pt" viewBox="0 0 652.000000 652.000000"
 preserveAspectRatio="xMidYMid meet">
<metadata>
Created by potrace 1.14, written by Peter Selinger 2001-2017
</metadata>
<g transform="translate(0.000000,652.000000) scale(0.100000,-0.100000)"
fill="#000000" stroke="none">
<path d="M3300 6133 l0 -101 79 -3 c44 -2 83 -7 86 -11 12 -12 -14 -331 -27
-340 -7 -4 -8 -8 -3 -9 6 -1 -3 -5 -20 -8 -16 -4 -36 -3 -42 2 -8 6 -13 6 -13
0 0 -6 -12 -9 -27 -8 -43 2 -73 -32 -79 -91 -3 -27 -7 -58 -9 -70 -5 -22 -32
-28 -52 -11 -8 6 -13 6 -13 0 0 -6 -21 -5 -54 1 -43 9 -140 12 -223 7 -7 -1
-13 -13 -13 -27 0 -27 -14 -46 -42 -57 -10 -3 -19 -12 -19 -19 -1 -7 -3 -22
-4 -33 -1 -11 -6 -60 -10 -110 -8 -101 -15 -111 -77 -106 -31 2 -38 -1 -39
-16 0 -10 -2 -27 -4 -38 -15 -73 -23 -325 -11 -343 3 -6 -2 -9 -11 -7 -10 2
-22 4 -26 4 -5 1 -5 6 -1 13 4 7 3 8 -5 4 -6 -4 -19 -2 -28 6 -10 7 -14 8 -10
1 5 -8 -5 -11 -35 -10 -40 1 -70 15 -62 28 2 3 -2 6 -9 6 -23 1 -41 8 -59 26
-10 9 -31 17 -46 17 -52 0 -66 20 -63 89 2 53 0 61 -16 62 -83 5 -156 2 -163
-6 -5 -6 -8 -28 -8 -50 0 -86 2 -83 -39 -76 -47 8 -99 -1 -95 -17 1 -7 -2 -12
-7 -12 -5 0 -8 -8 -7 -17 1 -13 -10 -17 -52 -20 -64 -4 -102 -18 -102 -36 0
-29 41 -66 78 -73 74 -12 72 -10 67 -67 -2 -29 -4 -56 -5 -60 0 -5 -4 -5 -10
-2 -5 3 -10 24 -10 46 l0 39 -95 0 -95 0 -6 -40 c-4 -22 -12 -40 -18 -41 -6
-1 -61 -2 -123 -4 -115 -2 -136 -9 -148 -46 -4 -13 -16 -19 -34 -19 -18 0 -34
-8 -42 -20 -12 -18 -25 -21 -82 -21 -41 -1 -72 -6 -80 -14 -10 -9 -13 -50 -13
-151 l1 -139 33 -3 c17 -2 32 -7 32 -11 0 -4 15 -7 32 -7 30 1 33 -2 34 -31 2
-52 3 -53 28 -53 15 0 26 -7 29 -19 5 -21 -9 -41 -31 -41 -18 0 -40 -57 -48
-122 -3 -29 -12 -57 -18 -63 -14 -11 -355 -12 -446 -1 -30 3 -117 9 -195 12
-77 3 -153 6 -170 7 l-30 2 1 -93 c0 -51 3 -94 6 -97 2 -3 72 -7 154 -9 82 -2
157 -7 166 -11 15 -6 18 -20 18 -90 0 -98 -11 -91 164 -95 191 -3 211 -8 201
-48 -4 -15 -11 -30 -17 -33 -5 -3 -71 -7 -145 -7 -75 -1 -143 -4 -153 -7 -36
-11 -58 -59 -65 -141 -3 -43 -10 -83 -16 -89 -13 -13 -98 -15 -121 -3 -16 7
-18 24 -18 117 0 91 -3 110 -18 124 -25 23 -58 11 -73 -27 -13 -35 -25 -262
-15 -299 4 -18 15 -26 41 -31 29 -6 35 -11 35 -31 0 -35 23 -43 151 -50 278
-14 543 -36 548 -44 4 -5 4 -44 1 -86 -3 -42 -2 -79 3 -82 8 -5 28 -6 232 -18
61 -4 111 -8 113 -10 2 -2 -1 -79 -6 -171 -6 -119 -5 -171 2 -176 6 -4 30 -8
54 -8 23 0 42 -1 42 -2 1 -2 3 -91 6 -198 3 -107 7 -204 9 -215 7 -32 38 -44
118 -46 l75 -3 0 -173 c-1 -198 8 -182 -107 -181 -95 1 -101 -6 -101 -122 0
-123 -3 -121 202 -127 198 -6 196 -7 206 92 l7 70 68 -2 c37 0 68 2 68 5 3 13
7 78 8 121 l1 44 85 -7 c65 -5 87 -3 90 6 3 7 6 47 9 90 4 89 6 88 -105 88
-64 0 -66 1 -66 25 0 16 8 30 21 37 28 15 44 37 54 73 8 28 11 30 58 30 l49 0
3 83 c2 54 7 84 15 87 27 9 113 14 135 8 l24 -6 -7 -116 c-3 -64 -8 -156 -11
-206 -10 -168 -13 -210 -13 -222 -1 -8 -15 -13 -36 -13 -34 0 -35 -1 -35 -39
0 -35 2 -38 26 -38 35 0 43 -16 38 -72 -12 -138 -11 -162 7 -171 10 -6 50 -10
89 -10 63 0 71 -2 66 -17 -3 -10 -8 -88 -12 -174 l-7 -156 134 -7 c74 -4 151
-9 171 -12 l38 -6 -6 -84 -7 -84 29 -1 c16 -1 49 -2 74 -3 70 -2 73 -7 66 -96
l-7 -77 172 -11 c95 -6 174 -10 176 -9 1 2 5 25 7 51 3 27 12 59 21 72 22 35
35 225 40 589 2 138 4 262 4 278 l1 27 90 0 90 0 2 48 c0 26 1 53 0 61 0 11
12 12 60 7 34 -3 72 -6 85 -6 24 0 24 -2 19 -65 -4 -56 -3 -65 12 -66 21 -2
59 -4 202 -13 106 -7 181 -13 253 -20 39 -3 46 -20 43 -98 -4 -79 -5 -78 100
-78 l75 0 -2 65 c-2 63 12 102 33 89 17 -10 67 18 81 45 16 32 3 101 -19 101
-8 0 -14 5 -14 10 0 6 -13 10 -30 10 -20 0 -30 5 -30 15 0 15 -31 20 -87 15
-13 -1 -23 3 -23 9 0 6 0 14 0 18 0 4 12 9 27 11 15 2 29 4 30 5 1 2 4 33 6
70 l3 67 -28 0 c-26 0 -28 3 -28 40 0 34 3 40 21 40 18 0 20 5 18 43 -2 24 0
48 4 54 6 9 54 11 176 7 93 -3 177 -7 186 -8 40 -6 119 14 138 35 19 20 26 21
123 14 122 -8 108 -29 124 180 15 196 12 186 64 179 26 -4 46 -2 50 4 4 6 9
46 12 89 3 43 7 84 9 90 7 21 -26 30 -118 35 -101 5 -92 15 -102 -112 l-6 -75
-90 3 c-79 3 -89 5 -89 22 0 10 -4 21 -8 24 -4 2 -68 7 -142 11 -193 9 -190 8
-190 58 0 23 4 47 8 53 9 14 38 24 46 17 3 -4 54 -8 112 -9 103 -3 107 -2 130
23 13 14 24 35 25 47 0 12 1 47 2 79 2 32 8 61 14 65 7 4 45 5 85 1 40 -4 84
-8 97 -8 24 -1 24 -1 17 -91 -7 -89 -7 -90 16 -90 13 -1 55 -3 93 -5 225 -13
277 -16 341 -20 l72 -5 6 31 c3 18 6 46 6 63 0 76 4 78 96 74 l83 -4 5 36 c3
19 8 60 11 91 l6 57 -88 6 c-48 4 -122 9 -163 11 -73 4 -75 5 -81 32 -18 79
-19 78 78 77 49 0 102 3 119 8 26 7 31 13 30 38 -2 38 -18 53 -58 56 -18 1
-62 6 -98 10 -36 4 -76 9 -90 10 -14 1 -28 2 -33 3 -10 1 3 258 19 373 4 29 0
41 -18 57 -48 45 -87 10 -94 -86 -7 -76 -22 -92 -82 -88 -26 2 -108 7 -182 11
-74 3 -151 8 -170 9 -19 2 -46 4 -60 4 -38 2 -54 16 -47 42 6 23 9 24 97 21
l90 -4 2 44 c0 23 1 66 2 93 l1 50 -75 3 c-41 2 -79 7 -85 12 -7 6 -9 29 -6
62 11 102 9 111 -24 118 -16 3 -57 6 -90 6 l-60 -1 -2 -35 c-2 -19 -6 -59 -9
-89 l-6 -54 -81 7 c-45 4 -83 8 -84 10 -2 2 3 77 11 167 9 90 18 207 22 259 3
52 8 98 10 101 2 3 20 5 41 3 47 -5 151 -12 179 -13 20 -1 21 -5 16 -76 l-4
-75 48 -1 c27 0 91 -4 142 -7 52 -4 95 -5 97 -2 3 5 11 84 20 208 7 86 6 87
-137 91 -31 1 -38 5 -38 21 0 13 -9 22 -26 26 -26 7 -26 7 -20 78 20 230 20
246 0 247 -11 1 -23 1 -29 -1 -5 -1 -24 1 -43 5 -26 5 -32 10 -27 25 4 13 0
20 -15 25 -14 4 -20 15 -20 34 0 48 -21 92 -49 103 -14 6 -84 12 -156 14 -208
6 -319 12 -337 19 -13 5 -16 19 -15 72 1 36 -1 67 -6 70 -4 2 -48 7 -97 10
-104 5 -95 16 -104 -124 l-5 -83 42 -1 c23 -1 55 -2 70 -3 l28 -1 -5 -60 c-4
-33 -9 -87 -13 -120 -16 -143 9 -195 93 -195 24 0 25 -3 20 -37 -3 -21 -8 -77
-11 -124 l-7 -87 -81 5 c-45 3 -84 7 -86 8 -2 2 6 124 17 272 12 147 19 269
17 271 -2 2 -43 7 -91 10 l-86 5 6 71 c3 39 8 112 12 161 11 156 19 141 -82
148 -47 2 -87 6 -88 8 -2 2 2 85 10 184 7 98 11 181 8 184 -2 2 -42 7 -89 9
-79 4 -85 6 -84 26 0 11 6 96 12 188 l12 166 -35 6 c-19 3 -47 6 -62 6 -19 0
-29 7 -34 23 -4 12 -15 29 -25 37 -13 12 -17 30 -16 72 1 31 -1 59 -3 61 -6 6
-92 13 -257 23 l-113 7 0 -100z m488 -512 c23 -1 23 -3 18 -78 -3 -43 -5 -84
-5 -91 -1 -9 -13 -11 -38 -8 -21 3 -59 5 -85 5 l-48 1 0 40 c0 31 5 43 24 56
14 8 26 27 28 42 3 26 33 42 68 36 8 -1 25 -3 38 -3z m-352 -136 l-2 -40 92 0
92 0 -4 -40 c-10 -95 -10 -125 -3 -136 4 -8 41 -14 94 -17 l87 -5 -6 -46 c-3
-25 -8 -91 -11 -146 -3 -55 -8 -117 -11 -138 l-6 -38 -106 7 c-59 4 -111 10
-116 15 -6 5 -11 107 -12 226 -1 120 -2 218 -4 218 -1 0 -3 8 -5 17 -6 31 -29
43 -84 46 -30 1 -58 7 -62 13 -11 18 -3 95 11 111 11 11 19 12 36 4 19 -9 22
-18 20 -51z m1144 -650 c0 -12 -7 -14 -27 -11 -16 2 -34 5 -41 5 -27 2 -2 17
32 19 27 2 36 -1 36 -13z m242 0 c29 -7 39 -23 31 -53 -5 -19 -11 -20 -76 -15
-40 3 -73 7 -75 8 -1 1 -4 12 -7 24 -8 42 39 55 127 36z m-2272 -230 c0 -16
-27 -27 -36 -14 -3 5 -3 16 0 24 6 17 36 9 36 -10z m-815 -345 c6 -5 8 -33 7
-64 l-4 -55 -76 3 -77 3 -3 45 c-2 36 -7 47 -23 51 -10 3 -19 10 -19 15 0 13
180 14 195 2z m156 -197 c2 -22 4 -28 13 -42 5 -7 9 -41 10 -75 l1 -61 85 -5
85 -5 0 -80 0 -80 -89 0 -90 0 -8 -32 c-5 -18 -14 -35 -20 -39 -13 -8 -81 -7
-112 3 -20 6 -20 7 2 220 4 40 7 101 6 137 l-2 65 31 3 c61 6 87 3 88 -9z
m-284 -286 c12 -7 12 -24 1 -42 -4 -6 -19 -10 -35 -9 -15 1 -47 2 -70 3 -36 1
-43 4 -43 21 0 10 7 23 16 28 19 10 114 10 131 -1z m3931 -522 c3 -2 13 0 23
5 13 7 22 5 34 -6 9 -10 12 -20 7 -23 -5 -3 -8 -32 -7 -64 2 -56 1 -58 -20
-53 -12 3 -52 6 -88 7 l-66 2 6 61 c3 33 10 66 14 72 8 10 87 9 97 -1z m-4557
-67 c8 -77 -9 -133 -36 -125 -11 4 -19 101 -11 123 7 17 46 18 47 2z m3463
-948 c17 0 18 -6 13 -60 l-7 -59 40 -11 c37 -10 40 -13 35 -38 -3 -15 -8 -65
-11 -112 -8 -138 -12 -182 -17 -186 -2 -2 -56 -1 -120 2 l-117 7 0 26 c0 14 4
73 10 131 5 58 12 148 14 200 3 52 5 98 6 103 0 4 30 5 68 3 37 -3 76 -5 86
-6z m597 -11 c10 -5 16 -24 18 -57 3 -73 -8 -80 -126 -81 -126 0 -134 2 -124
37 5 15 8 46 7 69 l-1 42 105 -1 c58 -1 112 -5 121 -9z m-3070 -141 c8 -12 1
-129 -8 -138 -3 -3 -20 -5 -39 -5 -19 0 -34 2 -35 5 -6 32 -3 138 4 147 11 15
67 9 78 -9z m2084 -127 c29 -6 31 -10 26 -52 0 -6 -7 -9 -15 -6 -18 7 -26 -13
-26 -64 l0 -39 -65 0 -65 0 4 38 c3 20 5 58 5 85 l1 47 53 -1 c28 -1 66 -4 82
-8z m-1905 -185 c0 -22 -31 -42 -44 -28 -11 10 -6 40 7 45 26 11 37 6 37 -17z
m1365 -466 c-6 -9 -132 -6 -142 4 -4 4 27 6 69 5 43 -1 75 -5 73 -9z m41 -180
c22 0 34 -6 38 -17 10 -31 -2 -117 -17 -128 -16 -11 -103 -10 -225 4 -9 1 -12
16 -8 59 2 31 5 69 5 84 1 27 2 27 79 30 65 3 78 0 86 -14 6 -12 21 -18 42
-18z"/>
<path d="M4855 4156 c-2 -6 -5 -28 -7 -48 -3 -30 -1 -38 13 -38 9 0 31 -3 48
-6 24 -5 31 -3 31 9 0 11 9 15 30 15 37 -1 37 -1 42 42 l3 35 -78 1 c-50 1
-80 -3 -82 -10z"/>
</g>
</svg>
